<svg width="640" height="178" viewBox="0 0 640 178" fill="none" xmlns="http://www.w3.org/2000/svg">
<g clip-path="url(#clip0_21_72)">
<path d="M0 40.84C0 18.285 18.285 0 40.84 0H137.88C160.436 0 178.721 18.285 178.721 40.84V137.88C178.721 160.436 160.436 178.721 137.88 178.721H40.84C18.285 178.721 0 160.436 0 137.88V40.84Z" fill="black"/>
<path d="M47.4729 131.248C47.4729 119.681 56.8499 110.304 68.4169 110.304H89.3599V131.248C89.3599 142.815 79.9839 152.192 68.4169 152.192C56.8499 152.192 47.4729 142.815 47.4729 131.248Z" fill="#24CB71"/>
<path d="M89.3599 26.5288V68.4158H110.304C121.871 68.4158 131.248 59.0398 131.248 47.4728C131.248 35.9058 121.871 26.5288 110.304 26.5288H89.3599Z" fill="#FF7237"/>
<path d="M110.13 110.304C121.697 110.304 131.074 100.927 131.074 89.3598C131.074 77.7929 121.697 68.416 110.13 68.416C98.5632 68.416 89.1863 77.7929 89.1863 89.3598C89.1863 100.927 98.5632 110.304 110.13 110.304Z" fill="#00B6FF"/>
<path d="M47.4729 47.4728C47.4729 59.0398 56.8499 68.4168 68.4169 68.4168H89.3599V26.5288H68.4169C56.8499 26.5288 47.4729 35.9058 47.4729 47.4728Z" fill="#FF3737"/>
<path d="M47.4729 89.36C47.4729 100.927 56.8499 110.304 68.4169 110.304H89.3599V68.417H68.4169C56.8499 68.417 47.4729 77.793 47.4729 89.36Z" fill="#874FFF"/>
<path d="M600.387 150.985C594.881 150.985 589.936 149.92 585.554 147.791C581.283 145.662 577.856 142.804 575.271 139.218C572.799 135.52 571.563 131.261 571.563 126.442C571.563 120.167 573.586 115.068 577.631 111.145C581.677 107.223 587.464 104.534 594.993 103.077L614.715 99.042C618.648 98.258 621.346 97.025 622.806 95.344C624.267 93.663 624.998 91.198 624.998 87.948L627.021 107.615L598.702 113.667C594.881 114.451 591.903 115.852 589.768 117.869C587.745 119.887 586.734 122.688 586.734 126.274C586.734 129.973 588.138 132.942 590.948 135.184C593.869 137.425 597.803 138.546 602.747 138.546C606.793 138.546 610.501 137.649 613.872 135.856C617.356 134.063 620.053 131.597 621.964 128.46C623.986 125.21 624.998 121.512 624.998 117.365V87.948C624.998 83.913 623.537 80.776 620.615 78.534C617.806 76.181 613.929 75.004 608.984 75.004C602.691 75.004 597.859 76.573 594.488 79.711C591.116 82.849 589.15 87.275 588.588 92.991L573.754 90.974C574.316 85.034 576.114 79.935 579.148 75.677C582.182 71.306 586.228 67.944 591.285 65.591C596.342 63.237 602.354 62.061 609.321 62.061C619.21 62.061 626.796 64.582 632.077 69.625C637.359 74.668 640 81.168 640 89.124V148.463H625.335V137.537C623.874 141.235 620.896 144.429 616.401 147.119C612.018 149.696 606.68 150.985 600.387 150.985Z" fill="black"/>
<path d="M452.043 148.463V64.582H466.708V73.996C467.831 70.746 470.304 67.944 474.125 65.591C477.945 63.237 482.384 62.061 487.441 62.061C492.386 62.061 496.937 63.125 501.095 65.254C505.253 67.384 507.95 70.578 509.186 74.836C510.647 70.914 513.344 67.832 517.277 65.591C521.323 63.237 525.818 62.061 530.762 62.061C539.303 62.061 545.821 64.526 550.316 69.457C554.811 74.388 557.058 81.56 557.058 90.974V148.463H542.056V92.991C542.056 87.387 540.82 83.185 538.348 80.383C535.988 77.47 532.504 76.013 527.897 76.013C522.84 76.013 518.907 77.806 516.097 81.392C513.4 84.866 512.052 89.965 512.052 96.689V148.463H497.049V92.991C497.049 87.387 495.813 83.185 493.341 80.383C490.981 77.47 487.497 76.013 482.89 76.013C477.833 76.013 473.9 77.806 471.09 81.392C468.393 84.866 467.045 89.965 467.045 96.689V148.463H452.043Z" fill="black"/>
<path d="M394.679 178.721C384.228 178.721 375.743 176.312 369.225 171.493C362.707 166.674 358.55 159.95 356.752 151.321L371.417 148.127C372.653 153.618 375.294 157.877 379.339 160.903C383.385 164.041 388.498 165.61 394.679 165.61C402.095 165.61 407.658 163.704 411.366 159.894C415.187 156.196 417.098 150.649 417.098 143.252V129.973C415.412 134.119 412.265 137.481 407.658 140.058C403.163 142.636 398.106 143.925 392.487 143.925C385.07 143.925 378.553 142.244 372.934 138.882C367.315 135.408 362.932 130.589 359.786 124.425C356.639 118.262 355.066 111.145 355.066 103.077C355.066 94.896 356.639 87.724 359.786 81.56C362.932 75.396 367.259 70.634 372.765 67.272C378.384 63.798 384.958 62.061 392.487 62.061C398.106 62.061 403.219 63.349 407.827 65.927C412.546 68.392 415.749 71.474 417.435 75.172V64.582H432.1V143.252C432.1 150.649 430.639 156.98 427.717 162.248C424.795 167.627 420.525 171.717 414.906 174.519C409.4 177.32 402.657 178.721 394.679 178.721ZM394.341 130.645C401.534 130.645 407.265 128.123 411.535 123.08C415.918 118.037 418.109 111.37 418.109 103.077C418.109 94.672 415.918 87.948 411.535 82.905C407.152 77.862 401.421 75.34 394.341 75.34C387.149 75.34 381.362 77.862 376.979 82.905C372.709 87.948 370.574 94.672 370.574 103.077C370.574 111.37 372.765 118.037 377.148 123.08C381.531 128.123 387.262 130.645 394.341 130.645Z" fill="black"/>
<path d="M324.79 148.365V64.5821H339.793V148.463L324.79 148.365ZM324.622 53.8241V29.9541H339.961V53.8241H324.622Z" fill="black"/>
<path d="M238.627 148.463V29.9541H254.472V148.463H238.627ZM241.83 98.3701V84.0811H306.39V98.3701H241.83ZM241.83 44.4101V29.9541H312.627V44.4101H241.83Z" fill="black"/>
</g>
<defs>
<clipPath id="clip0_21_72">
<rect width="640" height="178" fill="white"/>
</clipPath>
</defs>
</svg>
