<svg width="1514" height="363" viewBox="0 0 1514 363" fill="none" xmlns="http://www.w3.org/2000/svg">
<g clip-path="url(#clip0_21_84)">
<path d="M466.34 100.26H490.76V167.98C498.13 154.16 512.41 145.4 529 145.4C551.12 145.4 565.17 157.38 565.17 181.34V263.35H540.75V188.94C540.75 174.2 534.53 166.6 521.4 166.6C505.97 166.6 490.76 182.03 490.76 214.05V263.35H466.34V100.26Z" fill="#2D2C2B"/>
<path d="M581.24 205.31C581.24 175.82 598.52 145.42 635.37 145.42C672.22 145.42 688.58 174.21 688.58 201.63V211.77H606.11C608.18 232.5 619.7 244.02 636.98 244.02C649.19 244.02 657.94 239.18 664.62 229.74L683.97 238.72C674.29 255.77 659.09 265.21 635.83 265.21C598.97 265.21 581.24 235.26 581.24 205.32V205.31ZM663.71 191.95C660.95 177.9 652.19 166.61 635.38 166.61C622.25 166.61 610.96 175.13 607.28 191.95H663.72H663.71Z" fill="#2D2C2B"/>
<path d="M701.92 205.31C701.92 169.37 720.35 145.42 751.68 145.42C765.96 145.42 777.94 151.87 785.08 162.7V147.27H809.5V263.37H785.08V246.78C779.55 257.61 766.19 265.21 750.53 265.21C720.12 265.21 701.93 240.79 701.93 205.32H701.92V205.31ZM757.44 244.01C776.1 244.01 787.39 228.12 787.39 205.31C787.39 182.5 776.1 166.61 757.44 166.61C738.78 166.61 727.26 182.5 727.26 205.31C727.26 228.12 738.78 244.01 757.44 244.01Z" fill="#2D2C2B"/>
<path d="M825.59 205.31C825.59 169.37 844.02 145.42 875.35 145.42C890.32 145.42 902.07 152.33 908.75 162.7V100.27H933.17V263.36H908.75V246.77C903.22 257.6 890.55 265.2 876.04 265.2C844.25 265.2 825.59 241.24 825.59 205.31ZM881.11 244.01C899.77 244.01 911.06 228.12 911.06 205.31C911.06 182.5 899.77 166.61 881.11 166.61C862.45 166.61 850.93 182.5 850.93 205.31C850.93 228.12 862.45 244.01 881.11 244.01Z" fill="#2D2C2B"/>
<path d="M947.29 236.86L967.1 226.03C971.48 237.32 978.85 244 991.29 244C999.81 244 1006.72 239.39 1006.72 229.95C1006.72 220.51 995.43 215.9 982.3 210.83C965.95 204.61 954.2 195.4 954.2 177.2C954.2 159 969.17 145.41 989.68 145.41C1004.88 145.41 1016.86 152.09 1024.23 163.15L1008.8 175.59C1003.5 168.45 997.28 166.61 989.91 166.61C983 166.61 977.01 170.53 977.01 177.67C977.01 184.35 982.31 188.73 1001.43 195.87C1017.56 201.63 1029.76 211.3 1029.76 228.58C1029.76 251.15 1014.09 265.21 991.29 265.21C966.87 265.21 952.59 251.62 947.29 236.88V236.86Z" fill="#2D2C2B"/>
<path d="M1046.82 147.26H1071.24V163.85C1076.77 153.02 1089.44 145.42 1103.95 145.42C1135.74 145.42 1154.4 169.38 1154.4 205.31C1154.4 241.24 1135.97 265.2 1104.64 265.2C1090.36 265.2 1077.92 258.52 1071.24 247.69V310.35H1046.82V147.26ZM1098.88 244.01C1117.54 244.01 1129.06 228.12 1129.06 205.31C1129.06 182.5 1117.54 166.61 1098.88 166.61C1080.22 166.61 1068.93 182.5 1068.93 205.31C1068.93 228.12 1080.22 244.01 1098.88 244.01Z" fill="#2D2C2B"/>
<path d="M1167.07 205.31C1167.07 169.37 1185.5 145.42 1216.83 145.42C1231.11 145.42 1243.09 151.87 1250.23 162.7V147.27H1274.65V263.37H1250.23V246.78C1244.7 257.61 1231.34 265.21 1215.68 265.21C1185.27 265.21 1167.08 240.79 1167.08 205.32H1167.07V205.31ZM1222.59 244.01C1241.25 244.01 1252.54 228.12 1252.54 205.31C1252.54 182.5 1241.25 166.61 1222.59 166.61C1203.93 166.61 1192.41 182.5 1192.41 205.31C1192.41 228.12 1203.93 244.01 1222.59 244.01Z" fill="#2D2C2B"/>
<path d="M1289.48 205.31C1289.48 173.29 1307.91 145.42 1344.53 145.42C1369.41 145.42 1386.92 156.48 1395.44 178.13L1373.79 187.11C1367.8 173.98 1358.82 166.61 1344.54 166.61C1324.5 166.61 1314.82 183.43 1314.82 205.31C1314.82 227.19 1324.5 244.01 1344.54 244.01C1358.82 244.01 1367.58 236.64 1373.79 223.51L1395.44 232.26C1386.92 253.91 1369.41 265.2 1344.53 265.2C1307.9 265.2 1289.48 237.33 1289.48 205.31Z" fill="#2D2C2B"/>
<path d="M1406.27 205.3C1406.27 175.81 1423.55 145.41 1460.4 145.41C1497.25 145.41 1513.61 174.2 1513.61 201.62V211.76H1431.14C1433.21 232.49 1444.73 244.01 1462.01 244.01C1474.22 244.01 1482.97 239.17 1489.65 229.73L1509 238.71C1499.32 255.76 1484.12 265.2 1460.86 265.2C1424 265.2 1406.27 235.25 1406.27 205.31V205.3ZM1488.74 191.94C1485.98 177.89 1477.22 166.6 1460.41 166.6C1447.28 166.6 1435.99 175.12 1432.31 191.94H1488.75H1488.74Z" fill="#2D2C2B"/>
<path d="M366.49 179.25C370.69 238.77 343.21 272.35 326.43 296.01C300.48 323.29 267.67 360.49 184.49 362.59C113.9 365.45 78.99 334.35 49.8 307.26C11.83 265.49 1.91001 240.69 1.30188e-05 179.25C-0.189987 141.48 14.31 103.89 39.87 70.6999C75.55 20.3399 132.21 3.54994 184.49 0.109943C239.43 -1.99006 283.12 25.6699 312.88 55.4399C351.04 95.6899 362.67 130.23 366.49 179.26" fill="#FF7300"/>
</g>
<defs>
<clipPath id="clip0_21_84">
<rect width="1514" height="363" fill="white"/>
</clipPath>
</defs>
</svg>
